<?xml version="1.0" encoding="UTF-8" standalone="no"?>
<!-- Created with Inkscape (http://www.inkscape.org/) -->

<svg
   xmlns:dc="http://purl.org/dc/elements/1.1/"
   xmlns:cc="http://creativecommons.org/ns#"
   xmlns:rdf="http://www.w3.org/1999/02/22-rdf-syntax-ns#"
   xmlns:svg="http://www.w3.org/2000/svg"
   xmlns="http://www.w3.org/2000/svg"
   xmlns:sodipodi="http://sodipodi.sourceforge.net/DTD/sodipodi-0.dtd"
   xmlns:inkscape="http://www.inkscape.org/namespaces/inkscape"
   width="744.09448819"
   height="1052.3622047"
   id="svg3039"
   version="1.1"
   inkscape:version="0.48.2 r9819"
   sodipodi:docname="rebecca_ng.svg">
  <defs
     id="defs3041" />
  <sodipodi:namedview
     id="base"
     pagecolor="#ffffff"
     bordercolor="#666666"
     borderopacity="1.0"
     inkscape:pageopacity="0.0"
     inkscape:pageshadow="2"
     inkscape:zoom="1"
     inkscape:cx="105"
     inkscape:cy="65"
     inkscape:document-units="px"
     inkscape:current-layer="layer1"
     showgrid="false"
     inkscape:window-width="1262"
     inkscape:window-height="853"
     inkscape:window-x="135"
     inkscape:window-y="0"
     inkscape:window-maximized="0" />
  <metadata
     id="metadata3044">
    <rdf:RDF>
      <cc:Work
         rdf:about="">
        <dc:format>image/svg+xml</dc:format>
        <dc:type
           rdf:resource="http://purl.org/dc/dcmitype/StillImage" />
        <dc:title></dc:title>
      </cc:Work>
    </rdf:RDF>
  </metadata>
  <g
     inkscape:label="Layer 1"
     inkscape:groupmode="layer"
     id="layer1">
    <path
       style="fill:#000000"
       d="m 192.0683,1026.6265 c -1.88744,-0.9296 -5.20694,-3.3789 -7.37668,-5.4429 -3.84671,-3.6593 -3.93337,-3.8927 -3.47903,-9.3714 0.42542,-5.1301 0.84943,-5.9632 4.87667,-9.5822 3.63013,-3.26218 19.54569,-11.90994 26.05018,-14.15447 0.95337,-0.32898 2.55583,-3.42131 3.8293,-7.38954 1.20443,-3.75309 4.17918,-10.95621 6.61056,-16.00693 4.03215,-8.37599 5.28025,-12.31688 3.90083,-12.31688 -0.28593,0 -2.42343,1.1795 -4.75,2.62111 -5.08,3.14771 -10.97117,9.27914 -18.57843,19.33614 -5.98033,7.90614 -8.34127,7.84868 -3.69996,-0.0901 3.90175,-6.67375 9.21857,-18.03477 10.60381,-22.65827 0.99723,-3.32847 0.99148,-4.44735 -0.0292,-5.6772 -1.62158,-1.95388 -1.86421,-1.93847 -8.48549,0.53887 -10.04724,3.75915 -21.84756,17.26771 -17.45536,19.98223 0.72546,0.44836 1.678,0.59334 2.11676,0.32217 0.43876,-0.27117 0.79775,0.0134 0.79775,0.6324 0,0.6378 -1.19156,0.98834 -2.75,0.80902 -2.38906,-0.27489 -2.79082,-0.80997 -3.06098,-4.07673 -0.27876,-3.37072 0.25643,-4.35518 5.16567,-9.502 5.86015,-6.14376 16.25524,-12.23874 20.87226,-12.23808 3.76366,5.3e-4 6.21685,3.87814 5.4486,8.61229 -0.31891,1.96524 -2.22009,6.79402 -4.22485,10.73063 l -3.64502,7.15747 4.50847,-5.05997 c 5.70983,-6.40829 14.77584,-13.44003 17.32821,-13.44003 4.40259,0 5.63465,4.37564 2.49068,8.84563 -2.02826,2.8837 -14.27345,27.35563 -13.87618,27.73145 0.13372,0.1265 3.84313,-0.63517 8.24313,-1.69261 4.4,-1.05744 8.96944,-2.1368 10.15431,-2.39858 1.48742,-0.32862 2.63234,-1.87894 3.69858,-5.00816 1.07033,-3.14126 1.17643,-4.31685 0.34569,-3.83048 -0.65922,0.38595 -3.84926,2.44403 -7.08898,4.57352 -3.23972,2.12949 -6.60955,3.7333 -7.48852,3.56403 -7.12912,-1.37294 8.79773,-16.7848 17.34568,-16.7848 3.01481,0 3.19656,1.49556 1.04406,8.59107 -0.81904,2.69991 -1.49404,5.36227 -1.5,5.91634 -0.007,0.62396 3.0539,0.86824 8.04085,0.64177 6.63208,-0.30118 8.39517,-0.0548 10,1.39758 2.60181,2.3546 2.41032,4.57125 -0.58309,6.74992 -2.89248,2.10522 -3.1025,1.60043 -0.79765,-1.91721 1.42731,-2.17835 1.46376,-2.69232 0.25,-3.52524 -1.33921,-0.919 -17.63957,-0.46893 -18.62269,0.5142 -0.24633,0.24633 -1.98913,4.54319 -3.87288,9.54858 -6.03017,16.02301 -15.37017,28.45591 -25.1257,33.44601 -4.13892,2.1171 -12.83347,2.0673 -17.23136,-0.099 z m 19.22637,-3.8394 c 6.29971,-4.1234 10.86431,-10.2344 17.12381,-22.92492 6.33866,-12.85104 7.26484,-15.50714 5.39891,-15.48286 -2.91334,0.0379 -16.0491,3.90466 -18.32064,5.39303 -1.33451,0.87441 -3.14629,1.58983 -4.02619,1.58983 -4.76478,0 -21.4734,9.64552 -25.43676,14.68412 -10.26144,13.0453 10.1949,26.6021 25.26087,16.7408 z m 17.80169,-45.08641 c 7.65806,-3.73829 13.7709,-10.33851 9.57508,-10.33851 -3.25469,0 -13.67144,8.55082 -13.67144,11.22251 0,1.05963 0.20566,1.01525 4.09636,-0.884 z M 153.2,993.16218 c -2.20564,-2.20564 -1.16134,-10.69665 2.36941,-19.26532 0.55365,-1.34363 -1.06907,-0.51357 -5.12979,2.62401 -4.81931,3.72371 -6.75551,4.6123 -10.26528,4.71109 -5.1575,0.14517 -7.17434,-1.51265 -7.17434,-5.89722 0,-4.50481 2.57582,-9.35662 7.17182,-13.50883 4.37983,-3.95691 9.01876,-4.50419 9.65728,-1.13933 0.40806,2.15038 -2.48536,5.6756 -4.6584,5.6756 -1.1386,0 -0.93171,-0.62549 0.8256,-2.49606 1.2897,-1.37283 2.05539,-2.78558 1.70153,-3.13945 -1.00698,-1.00698 -6.99652,4.00652 -9.88411,8.27342 -3.49568,5.16545 -4.18884,7.80588 -2.43195,9.26397 2.14757,1.78232 6.34521,0.32205 7.04079,-2.44935 0.69512,-2.76957 6.47032,-8.6762 11.80757,-12.07627 6.14147,-3.91239 14.30801,-2.55754 9.35607,1.5522 -1.87438,1.5556 -5.25441,8.85615 -8.30393,17.9357 -2.19034,6.52148 -2.30439,7.54229 -0.98952,8.85716 2.4766,2.4766 7.0273,0.6147 13.63984,-5.58069 3.3719,-3.15918 6.33534,-5.53937 6.5854,-5.2893 0.76263,0.76262 -7.70703,9.53688 -10.9625,11.35675 -3.58693,2.00517 -8.65268,2.29473 -10.35549,0.59192 z m 0.42956,-21.30069 c 5.38943,-5.52014 6.46961,-7.49931 4.09295,-7.49931 -2.09724,0 -5.67624,2.95344 -8.79316,7.25623 -5.62741,7.76842 -2.79018,7.91515 4.70021,0.24308 z m -96.894457,13.41225 c -2.027945,-1.18077 -7.735113,-11.97746 -7.735083,-14.63304 1.6e-5,-1.393 0.921257,-1.82371 4.25,-1.98698 6.880872,-0.33751 13.924898,-3.42737 16.489627,-7.23317 2.77122,-4.11221 2.838226,-6.59835 0.290456,-10.77689 -2.452601,-4.02246 -11.617045,-8.77931 -18.797252,-9.75681 -8.25672,-1.12406 -17.107349,0.25892 -19.968685,3.12025 -1.964913,1.96492 -2.280729,3.00318 -1.707443,5.61334 0.632863,2.88141 0.539952,3.06686 -0.926668,1.84968 -2.34368,-1.94509 -2.007076,-5.82183 0.744389,-8.57329 3.001521,-3.00152 9.176948,-3.97505 20.497124,-3.23129 11.18588,0.73495 14.818983,2.01408 20.47779,7.20976 C 74.554159,950.73597 75,951.57419 75,955.61889 c 0,2.95846 -0.676946,5.33417 -1.998776,7.0146 -2.070367,2.63205 -15.293412,8.72869 -18.931706,8.72869 -2.808541,0 -2.562372,1.54357 1.270577,7.96699 2.037848,3.41511 4.181336,5.72346 5.71107,6.15032 L 63.5,986.16282 61,986.23209 c -1.375,0.0381 -3.294203,-0.39316 -4.264897,-0.95835 z m 12.017427,-6.75335 c -1.327736,-2.24768 -1.474866,-3.57996 -0.703762,-6.37266 1.01373,-3.67143 7.725729,-12.05931 11.091133,-13.86042 4.946642,-2.64737 8.256267,3.28312 3.637593,6.51817 -2.183561,1.52942 -2.157951,1.5567 1.461456,1.5567 3.48916,0 3.744048,-0.22473 4.820279,-4.25 0.624975,-2.3375 1.493291,-4.7 1.929591,-5.25 0.436301,-0.55 2.502307,-4.36925 4.591125,-8.48722 7.080915,-13.95956 17.297285,-25.27287 25.730985,-28.49372 5.72161,-2.18511 15.61013,-1.67378 20.29813,1.04959 4.37806,2.54331 7.39094,7.34785 7.39094,11.78607 0,3.06663 -0.83785,4.62669 -4.70547,8.76149 -6.18692,6.61431 -18.47559,12.60882 -36.79453,17.94866 -7.7,2.24449 -14.54828,4.25352 -15.2184,4.4645 -1.243684,0.39157 -4.628473,7.45709 -3.914436,8.17113 0.216379,0.21638 2.471079,-1.00878 5.010443,-2.72258 4.763837,-3.21507 10.037453,-5.22953 11.047123,-4.21986 2.37656,2.37657 -3.42082,8.98631 -11.515721,13.12937 -9.4812,4.85258 -12.353477,4.03368 -9.01957,-2.57154 4.15843,-8.23878 4.124279,-8.31589 -3.68309,-8.31589 l -6.928426,0 -2.37546,4.47779 c -2.160812,4.07317 -2.233281,4.61996 -0.801999,6.05125 1.398129,1.39812 2.037355,1.41363 5.736499,0.13917 4.826941,-1.66301 5.451801,-0.86072 1.258745,1.61618 -4.133416,2.44167 -6.417741,2.13333 -8.343178,-1.12618 z m 25.067435,-2.06186 c 3.842779,-2.05659 8.951515,-10.09635 6.415565,-10.09635 -1.275382,0 -12.93535,9.77536 -13.540264,11.35174 -0.45446,1.1843 -0.01951,1.31484 2.230713,0.66949 1.537386,-0.44092 3.73968,-1.30711 4.893986,-1.92488 z M 82.056293,962.257 c 1.636756,-3.05831 -1.246682,-2.34931 -4.575282,1.125 l -2.893172,3.01982 3.227189,-1.125 c 1.774955,-0.61876 3.683523,-1.97768 4.241265,-3.01982 z m 23.266937,-3.95955 c 17.11079,-4.26203 37.30937,-15.20854 39.70901,-21.52008 2.72087,-7.15643 -1.0139,-14.20586 -8.64945,-16.32594 -4.84689,-1.34579 -6.89899,-1.3513 -11.65217,-0.0313 -4.36046,1.21092 -14.95494,10.66233 -19.23127,17.15634 -1.55219,2.35714 -4.03664,6.08572 -5.521005,8.28572 C 97.23479,949.92845 93,958.84577 93,960.55669 c 0,0.51714 0.7875,0.71486 1.75,0.43938 0.9625,-0.27549 5.72045,-1.48987 10.57323,-2.69862 z m -0.75394,20.19872 c -2.06007,-3.98374 -0.585,-8.6985 4.54468,-14.52613 4.80333,-5.45687 7.2336,-6.94971 9.9238,-6.09587 2.69257,0.85459 2.53798,4.97133 -0.26028,6.93131 l -2.2225,1.5567 2.9725,-0.002 c 2.17257,-0.001 3.98494,-1.07765 6.73463,-4 3.95013,-4.19816 8.95848,-5.47183 10.07501,-2.56218 0.60886,1.5866 -2.85244,6.56378 -4.5647,6.56378 -0.59532,0 -0.33766,-0.82293 0.57258,-1.82874 1.73814,-1.92062 2.20615,-4.17126 0.8674,-4.17126 -1.56152,0 -9.93441,9.57452 -11.20733,12.81574 -1.10545,2.8148 -1.07775,3.54016 0.18333,4.80124 1.30182,1.30182 2.00032,1.30815 5.64855,0.0512 4.78682,-1.64919 5.58776,-0.45632 1.2127,1.80611 -4.25967,2.20276 -6.76699,1.88673 -8.72368,-1.09957 -1.5945,-2.4335 -1.6041,-2.94794 -0.13144,-7.04322 l 1.58869,-4.41797 -6.64162,0.29322 c -6.62887,0.29266 -6.64526,0.30069 -8.54401,4.18983 -2.36326,4.84056 -1.27604,7.27462 3.0157,6.75159 1.58769,-0.1935 3.6742,-0.77183 4.6367,-1.28519 2.96972,-1.58393 1.92845,0.60036 -1.15429,2.42138 -4.25562,2.51386 -6.80977,2.16924 -8.52642,-1.1504 z m 13.487,-16.23917 c 1.63676,-3.05831 -1.24668,-2.34931 -4.57528,1.125 l -2.89317,3.01982 3.22719,-1.125 c 1.77495,-0.61876 3.68352,-1.97768 4.24126,-3.01982 z M 40,978.81252 c 0,-2.30537 2.4456,-6.63608 10.358336,-18.34274 4.735777,-7.00644 7.240832,-9.95044 7.467102,-8.77551 0.187276,0.97244 -1.440295,4.10804 -3.616825,6.96799 -2.176529,2.85996 -6.07825,8.91242 -8.67049,13.44992 -2.592241,4.5375 -4.898781,8.25 -5.125644,8.25 C 40.185616,980.36218 40,979.66483 40,978.81252 z"
       id="path3112"
       inkscape:connector-curvature="0"
       inkscape:export-filename="/Users/zar/Desktop/rebecca_ng.jpg.png"
       inkscape:export-xdpi="900.30048"
       inkscape:export-ydpi="900.30048" />
    <text
       xml:space="preserve"
       style="font-size:20px;font-style:normal;font-variant:normal;font-weight:normal;font-stretch:normal;line-height:125%;letter-spacing:0px;word-spacing:0px;fill:#000000;fill-opacity:1;stroke:none;font-family:Liberation Mono;-inkscape-font-specification:Liberation Mono"
       x="55.875"
       y="1012.8622"
       id="text3276"
       sodipodi:linespacing="125%"
       inkscape:export-filename="/Users/zar/Desktop/rebecca_ng.jpg.png"
       inkscape:export-xdpi="900.30048"
       inkscape:export-ydpi="900.30048"><tspan
         sodipodi:role="line"
         id="tspan3278"
         x="55.875"
         y="1012.8622"
         style="font-size:21px;font-style:normal;font-variant:normal;font-weight:normal;font-stretch:normal;font-family:Andale Mono;-inkscape-font-specification:Andale Mono">MILLINERY</tspan></text>
  </g>
</svg>
